<svg xmlns="http://www.w3.org/2000/svg" xmlns:xlink="http://www.w3.org/1999/xlink" viewBox="0 0 500 500" width="500px" height="500px"><defs><linearGradient id="zo8szHbauJnNzJoYRuB8Fa" x1="171.387" x2="568.939" y1="-.167" y2="415.244" gradientUnits="userSpaceOnUse"><stop offset="0" stop-color="#7d8fe0"/><stop offset="1" stop-color="#3254d3"/></linearGradient><linearGradient id="zo8szHbauJnNzJoYRuB8Fc" x1="185.628" x2="583.18" y1="-13.796" y2="401.615" xlink:href="#zo8szHbauJnNzJoYRuB8Fa"/><linearGradient id="zo8szHbauJnNzJoYRuB8Fd" x1="253.172" x2="650.724" y1="-78.436" y2="336.975" xlink:href="#zo8szHbauJnNzJoYRuB8Fa"/><linearGradient id="zo8szHbauJnNzJoYRuB8Fe" x1="175.747" x2="573.299" y1="-4.34" y2="411.071" xlink:href="#zo8szHbauJnNzJoYRuB8Fa"/><linearGradient id="zo8szHbauJnNzJoYRuB8Ff" x1="-30.134" x2="367.418" y1="192.69" y2="608.101" xlink:href="#zo8szHbauJnNzJoYRuB8Fa"/><linearGradient id="zo8szHbauJnNzJoYRuB8Fb" x1="89.466" x2="487.018" y1="78.232" y2="493.643" gradientUnits="userSpaceOnUse"><stop offset="0" stop-color="#b3c5ff"/><stop offset="1" stop-color="#688afc"/></linearGradient><linearGradient id="zo8szHbauJnNzJoYRuB8Fg" x1="184.995" x2="147.106" y1="244.55" y2="456.726" gradientUnits="userSpaceOnUse"><stop offset="0" stop-color="#ffd3d1"/><stop offset="1" stop-color="#f59f9b"/></linearGradient><linearGradient id="zo8szHbauJnNzJoYRuB8Fh" x1="38.893" x2="375.508" y1="142.156" y2="493.893" xlink:href="#zo8szHbauJnNzJoYRuB8Fb"/><linearGradient id="zo8szHbauJnNzJoYRuB8Fi" x1="33.955" x2="431.508" y1="131.356" y2="546.767" xlink:href="#zo8szHbauJnNzJoYRuB8Fb"/><linearGradient id="zo8szHbauJnNzJoYRuB8Fj" x1="154.033" x2="596.086" y1="1.787" y2="463.698" xlink:href="#zo8szHbauJnNzJoYRuB8Fa"/><linearGradient id="zo8szHbauJnNzJoYRuB8Fk" x1="125.436" x2="650.563" y1="-94.678" y2="454.039" xlink:href="#zo8szHbauJnNzJoYRuB8Fa"/><linearGradient id="zo8szHbauJnNzJoYRuB8Fl" x1="164.357" x2="595.725" y1="-13.419" y2="437.327" xlink:href="#zo8szHbauJnNzJoYRuB8Fa"/><linearGradient id="zo8szHbauJnNzJoYRuB8Fm" x1="-.238" x2="397.314" y1="164.079" y2="579.49" xlink:href="#zo8szHbauJnNzJoYRuB8Fb"/><linearGradient id="zo8szHbauJnNzJoYRuB8Fn" x1="-157.753" x2="422.517" y1="173.735" y2="780.071" xlink:href="#zo8szHbauJnNzJoYRuB8Fa"/><linearGradient id="zo8szHbauJnNzJoYRuB8Fo" x1="-164.834" x2="509.228" y1="-110.813" y2="593.528" xlink:href="#zo8szHbauJnNzJoYRuB8Fa"/></defs><path fill="url(#zo8szHbauJnNzJoYRuB8Fa)" d="M423.829,247.385a123.572,123.572,0,0,0,.055,19.589,10.058,10.058,0,0,0,2.763,5.915,49.327,49.327,0,0,1,13.729,32.189,2.515,2.515,0,0,0,4.809.942c3.162-7.195,6.436-18.63,6.172-34.838a10.254,10.254,0,0,0-4.389-8.22c-4.751-3.326-12.635-9.426-18.674-16.988A2.512,2.512,0,0,0,423.829,247.385Z"/><path fill="url(#zo8szHbauJnNzJoYRuB8Fc)" d="M322.734,200.848a2.048,2.048,0,0,1-3.976-.887c2.015-16.968,8.232-41.3,26.67-57.691,0,0,14.31-14.31,5.724-25.185,0,0-14.3-4.953-34.446-3.994a1.9,1.9,0,0,1-.917-3.6A181.344,181.344,0,0,0,334.6,99.368a7.214,7.214,0,0,1,7.915.047c5.522,3.641,16.4,9.268,29.9,8.377a4.163,4.163,0,0,1,4.421,3.714c.752,7.119,1.818,21.818-.832,31.508a7.194,7.194,0,0,1-4.561,4.83C362.278,151.123,335.586,163.6,322.734,200.848Z"/><path fill="url(#zo8szHbauJnNzJoYRuB8Fd)" d="M409.586,90.7a18.4,18.4,0,0,1,22.771,4.319l3.47,4.176a3.943,3.943,0,0,1-1.037,5.919c-5.36,3.163-15.9,6.2-26.838-8.421A3.945,3.945,0,0,1,409.586,90.7Z"/><path fill="url(#zo8szHbauJnNzJoYRuB8Fe)" d="M193.682,29.8a3.289,3.289,0,0,0-2.712,5.54c3.788,4.036,9.595,8.782,17.2,10.782,11.88,3.126,25.838,14.7,37.365,26.363,4.469,4.523,7.389.024,7.108-2.37-1.308-11.119-7.246-27.48-22.873-41.425C229.766,28.686,211.635,31.564,193.682,29.8Z"/><path fill="url(#zo8szHbauJnNzJoYRuB8Ff)" d="M32.223,248.426c6.928-9.511,15.337-20.934,23.335-31.48a1.605,1.605,0,0,1,2.832,1.377,111.614,111.614,0,0,0-3.574,20.491,25.7,25.7,0,0,1-5.877,15.056c-7.814,9.283-18.547,28.28-2.769,51.4,14.352,20.6,29.238,13.668,35.369,23.233l9.29,14.643a1.972,1.972,0,0,1-2.619,2.784c-12.868-7.438-19.65-7.387-33.364-3.481a9.217,9.217,0,0,1-10.416-4.217C30.837,313.421,9.032,279.721,32.223,248.426Z"/><path fill="url(#zo8szHbauJnNzJoYRuB8Fb)" d="M458.194,439.756l-9.836-20.985A14.092,14.092,0,0,0,438.641,411c-12.641-2.8-40.307-9.978-58.31-22.361,0,0-16.257-20.755-9.412-70.383a97.858,97.858,0,0,0-26.635-24.875c-10.374-6.394-18.911-21.023-23.053-33.627a2.032,2.032,0,0,0-3.962.587c-.245,10.132.659,23.936,5.734,36.138,0,0,17.969,11.511,22.247,21.777l2.567,24.6s-51.393-44.187-79.871-78.752c-23.551-29.454-20.787-63.1-2.487-97.262a7.036,7.036,0,0,0-.017-6.711,73.167,73.167,0,0,1-8.238-27.552s-6.93-16.257-42.011-18.824c-22.976-1.681-29.8-18.409-31.779-29.754a1.082,1.082,0,0,0-2.146.1c-.6,8.126-.473,19.9,3.212,31.554a12.268,12.268,0,0,0,10.992,8.465c68.42,4.316,41.074,68.771,24.29,91.5,0,0-40.429-31.324-60.888-62.336a19.1,19.1,0,0,1,.484-21.741,36.6,36.6,0,0,0,6.812-19.407,3.187,3.187,0,0,0-5.026-2.776c-5.336,3.8-12.963,6.78-11.836-8.44,2.819-40.407,18.653-25.944-11.979-52.193,0,0-18.221,3.77-37.973-7a2.68,2.68,0,0,0-3.409,4c4.848,6.057,12.562,12.77,23.7,14.534a20.454,20.454,0,0,1,10.793,5.194l7.745,7.228s4.278,6.846-5.134,24.814c-3.6,6.875-7.7,21.391-7.7,21.391C92.632,92.17,61.188,57.427,30.662,16.9A4.869,4.869,0,0,0,21.91,19.84V73.351a26.627,26.627,0,0,0,10.209,20.97c7.538,5.9,18.84,14.825,32.508,25.829-9.391,11.1-23.031,16.422-36.384,9.919a1.946,1.946,0,0,0-2.439,2.869,40.431,40.431,0,0,0,6.952,7.766,16.219,16.219,0,0,0,10.868,3.814c21.244-.3,52.613-.3,72.109,17.655,77.681,65.1,110.039,101.105,193.374,178.328l36.143,35.082s10.291,13.318,14.579,27.733a13.958,13.958,0,0,0,11.227,9.723c14.579,1.918,28.774,4.533,40.5,14.248l62.969,49.645a2.185,2.185,0,0,0,3.174-2.925C471.682,465.059,463.793,452.354,458.194,439.756Z"/><path fill="url(#zo8szHbauJnNzJoYRuB8Fg)" d="M206.992,286.73c-.273,30.985-.019,70.544,2.6,88.3,0,0,11.31,32.387,10.282,50.894,0,0-33.11,26.97-72.694,48.048-25.943-117.654.2-121.777,13.06-221.294l-15.315-13.188a16.164,16.164,0,0,1-5-8.512,14.772,14.772,0,0,0-7.023-8.543c-11.067-6.379-7-17.123-6.282-27.326a22.246,22.246,0,0,1,11.971-17.5c6.959-3.566,16.179-8.091,24.14-11.331L177.9,167.7c4.568,6.552,10.449,11.863,19.232,14.424l15.533,14.424-16.643,14.424L187.52,221.33l14.794,20.711Z"/><path fill="url(#zo8szHbauJnNzJoYRuB8Fh)" d="M74.941,177.214c-2.22,4.77-3.641,12.125,2.368,19.907a5.919,5.919,0,0,0,9.17.192c4.437-5.226,8.868-14.219-2.7-22.456A5.952,5.952,0,0,0,74.941,177.214Z"/><path fill="url(#zo8szHbauJnNzJoYRuB8Fi)" d="M289.83,316.521s-38-16.027-64.99,26.693a39.8,39.8,0,0,1-27.284,2.274s-12.364-4.783-32.211-36.758c-11.111-16.2-33.556-17.346-47.795-16.08a2.483,2.483,0,0,0-.5,4.844c10.507,3.247,25.919,9.572,33.327,20.2,6.449,11.647,12.551,36.026,32.018,49.4,0,0,28.343-7.086,55.1-2.791a5.778,5.778,0,0,0,6.253-3.565c4.274-10.6,19.279-35.6,63.321-24.339Z"/><path fill="url(#zo8szHbauJnNzJoYRuB8Fj)" d="M221.717,88.792c5.306,2.556,22.049,12.942,27.181,4.759a12.939,12.939,0,0,0,.527-3.662,4.179,4.179,0,0,1,4.466-4.159c5.466.735,3.332,9.16,2.216,11.309a11.619,11.619,0,0,1-5.457,5.173c-9.789,4.111-24.589-5.623-31.071-10.275A1.905,1.905,0,0,1,221.717,88.792Z"/><path fill="#e07a86" d="M155.329,190.635c-3.855.082-5.212-5.451-1.651-7.12l23.891-11.693c4.456-2.092,7.693,4.492,3.3,6.737l-23.891,11.693A3.734,3.734,0,0,1,155.329,190.635Z"/><path fill="#e07a86" d="M171.363,205.76c-3.659.137-5.2-5.189-1.91-6.981.148-.087,14.879-8.778,26.217-15.164a3.75,3.75,0,0,1,3.68,6.535C186.066,197.309,174.185,205.489,171.363,205.76Z"/><path fill="url(#zo8szHbauJnNzJoYRuB8Fk)" d="M415.555,202.859c-.12,7.064-10.628,7.063-10.748,0C404.928,195.8,415.436,195.8,415.555,202.859Z"/><path fill="#e07a86" d="M173.345,178.145s16.447,2.548,17.374,13.436a19.149,19.149,0,0,1,3.941-.313,7.175,7.175,0,0,1,4.314,12.708L184.323,216.1a7.287,7.287,0,0,0-.254,11.032c17.2,14.666,18.365,32.708,22.923,59.6.11-12.416.3-23.457.464-31.164a31.751,31.751,0,0,0-6.756-20.247L190.56,222.38c5.311-6.825,16.725-16.747,16.725-16.747l12.477,9.989c5.421-15.848,1.439-27.016-2.043-30.21s-13.741-2.114-13.741-2.114c.5-13.268-9.344-13.253-18.17-11.333,0,0-.909-4.736-6.5-9.305-1.908-1.561-8.522.353-16.4,3.547C166.144,166.616,173.9,168.59,173.345,178.145Z"/><path fill="#e07a86" d="M219.874,425.922A96.134,96.134,0,0,1,178.9,444.763a22.5,22.5,0,0,1-23.242-9.521c-15.478-23.343-18.509-54.357-18.017-78-7.174,25.11-14.447,47.658-19.326,62.266-9.393,25.36,5.092,56.387,28.044,65.531C185.944,463.964,219.874,425.922,219.874,425.922Z"/><path fill="url(#zo8szHbauJnNzJoYRuB8Fl)" d="M282.753,120.377c2.455-2.217,7.25-5.051,15.992-5.59a2.194,2.194,0,0,1,1.826,3.617c-2.971,3.405-8.536,7.662-16.884,5.729A2.189,2.189,0,0,1,282.753,120.377Z"/><path fill="url(#zo8szHbauJnNzJoYRuB8Fm)" d="M158.418,301.341s-18.334-15.079-50.11-15.756a7.235,7.235,0,0,1-6.459-4.271,32.289,32.289,0,0,0-12-14.269,1.9,1.9,0,0,0-2.585,2.66,43.306,43.306,0,0,1,7.193,19.582,7.273,7.273,0,0,0,7.357,6.58,61.94,61.94,0,0,1,34.874,9.979Z"/><path fill="url(#zo8szHbauJnNzJoYRuB8Fn)" d="M55.687,401.645c4.42-.511,11.886.131,21.879,6.37a2.951,2.951,0,0,1-.826,5.388c-5.912,1.408-15.333,1.722-22.964-6.916A2.944,2.944,0,0,1,55.687,401.645Z"/><path fill="url(#zo8szHbauJnNzJoYRuB8Fo)" d="M352.253,439.836c4.818-1.87,13.4-3.337,26.46.745a3.428,3.428,0,0,1,.652,6.3c-6.233,3.316-16.729,6.432-27.841-1.04A3.42,3.42,0,0,1,352.253,439.836Z"/></svg>