<svg xmlns="http://www.w3.org/2000/svg" xmlns:xlink="http://www.w3.org/1999/xlink" viewBox="0,0,256,256" width="512px" height="512px"><g transform="translate(96,96) scale(0.25,0.25)"><g fill="none" fill-rule="nonzero" stroke="none" stroke-width="1" stroke-linecap="butt" stroke-linejoin="miter" stroke-miterlimit="10" stroke-dasharray="" stroke-dashoffset="0" font-family="none" font-weight="none" font-size="none" text-anchor="none" style="mix-blend-mode: normal"><g transform="translate(-128,3.01083) scale(2,2)"><path d="M40.7,42.9v0l13.3,-28.9l5,8l10,-18c0,0 17.9,37.8 18.2,38.8v0c1.1,2.8 1.8,5.9 1.8,9.2c0,13.8 -11.2,25 -25,25c-13.8,0 -25,-11.2 -25,-25c0,-3.2 0.6,-6.3 1.7,-9.1z" fill="#fcca3d"></path><path d="M79,66.7c-0.6,0 -1.3,-0.2 -1.8,-0.6c-1.3,-1 -1.5,-2.9 -0.5,-4.2c2.1,-2.9 3.3,-6.3 3.3,-9.9c0,-2 -0.4,-3.9 -1.1,-5.8c-0.3,-0.6 -2.3,-5 -10.4,-22.1c-0.7,-1.5 -0.1,-3.3 1.4,-4c1.5,-0.7 3.3,-0.1 4,1.4c6.5,13.7 12,21.2 12.4,22.3c0,0 0,0.1 0.1,0.1c1,2.6 1.5,5.3 1.5,8c0,5 -3.6,9.6 -6.7,13.6c-0.5,0.8 -1.4,1.2 -2.2,1.2z" fill="#ff6144"></path><path d="M64.6,64c6.8,-0.3 12.2,-6.3 11.9,-13.2c-0.1,-1.3 -0.3,-2.6 -0.8,-3.8c-0.3,-0.6 -0.5,-1.2 -0.7,-1.4l-0.2,-0.4v0c-0.6,-1.1 -2.3,-0.9 -2.6,0.4v0c-0.3,1.4 -1.4,2.4 -2.8,2.4c-1,0 -2,-0.5 -2.6,-1.5l-4.8,-8.8c-1.2,-2.1 -4.3,-2 -5.3,0.2l-3.3,7l-0.4,0.6c-0.2,0.4 -0.5,0.9 -0.7,1.4c-0.6,1.5 -0.9,3 -0.9,4.6c0.1,7.1 6,12.8 13.2,12.5zM69,124h-10l-5,-35h20zM41,77h46v12h-46z" fill="#ffffff"></path><path d="M87,74h-5.7c6.5,-5.1 10.7,-13.1 10.7,-22c0,-3.5 -0.7,-7 -2,-10.3c0,-0.1 -0.1,-0.1 -0.1,-0.2c-1.2,-2.6 -14.1,-29.9 -18.2,-38.7c-0.5,-1 -1.4,-1.7 -2.5,-1.8c-1.2,-0.1 -2.2,0.5 -2.8,1.5l-7.5,13.6l-2.3,-3.7c-0.6,-0.9 -1.6,-1.5 -2.7,-1.4c-1.1,0.1 -2.1,0.7 -2.5,1.7l-13.4,28.9c-0.1,0.1 -0.1,0.2 -0.1,0.4c-1.2,3.2 -1.8,6.6 -1.8,10c0,5.9 1.8,11.5 5.2,16.2c0.9,1.2 2.5,1.7 3.8,1.1c1.7,-0.8 2.2,-3 1.2,-4.5c-3.6,-4.8 -5,-10.8 -3.9,-16.9c0.2,-1.4 0.7,-2.7 1.2,-4v0l10.1,-22c0.3,-0.7 1.3,-0.8 1.8,-0.1l1.1,1.7c0.8,1.3 2.4,1.8 3.9,1.1c0.6,-0.3 1,-0.8 1.3,-1.3l6.2,-11.1c0.4,-0.7 1.4,-0.7 1.8,0.1c6.5,14.1 14.3,30.7 14.7,31.6v0.1c0.3,0.8 0.6,1.5 0.8,2.3c3.7,14.6 -7.3,27.7 -21.3,27.7h-23c-1.7,0 -3,1.3 -3,3v12c0,1.7 1.3,3 3,3h10.4l4.6,32.4c0.2,1.5 1.5,2.6 3,2.6h10c1.5,0 2.8,-1.1 3,-2.6l4.6,-32.4h10.4c1.7,0 3,-1.3 3,-3v-12c0,-1.7 -1.3,-3 -3,-3zM65.5,121h-3c-0.5,0 -0.9,-0.4 -1,-0.9l-3.9,-27c-0.1,-0.6 0.4,-1.1 1,-1.1h10.8c0.6,0 1.1,0.5 1,1.1l-3.9,27c-0.1,0.5 -0.5,0.9 -1,0.9zM83,86h-38c-0.6,0 -1,-0.4 -1,-1v-4c0,-0.6 0.4,-1 1,-1h38c0.6,0 1,0.4 1,1v4c0,0.6 -0.4,1 -1,1zM39,1c-1.65685,0 -3,1.34315 -3,3c0,1.65685 1.34315,3 3,3c1.65685,0 3,-1.34315 3,-3c0,-1.65685 -1.34315,-3 -3,-3z" fill="#444b54"></path></g></g><g fill="#000000" fill-rule="nonzero" stroke="none" stroke-width="1" stroke-linecap="butt" stroke-linejoin="miter" stroke-miterlimit="10" stroke-dasharray="" stroke-dashoffset="0" font-family="none" font-weight="none" font-size="none" text-anchor="none" style="mix-blend-mode: normal"><g><path d="M97.41,122.82v0c0,-16.1 3.54333,-28.49667 10.63,-37.19c7.08667,-8.69333 17.20667,-13.04 30.36,-13.04v0c6.9,0 12.92667,1.19667 18.08,3.59c5.15333,2.38667 9.43,5.79 12.83,10.21c3.40667,4.41333 5.93667,9.70333 7.59,15.87c1.66,6.16 2.49,13.01333 2.49,20.56v0c0,16.1 -3.56667,28.49667 -10.7,37.19c-7.12667,8.69333 -17.22333,13.04 -30.29,13.04v0c-6.99333,0 -13.06667,-1.19667 -18.22,-3.59c-5.14667,-2.38667 -9.4,-5.79 -12.76,-10.21c-3.36,-4.41333 -5.86667,-9.70333 -7.52,-15.87c-1.66,-6.16 -2.49,-13.01333 -2.49,-20.56zM117.29,122.82v0c0,4.87333 0.41333,9.36 1.24,13.46c0.82667,4.09333 2.09,7.61 3.79,10.55c1.70667,2.94667 3.89333,5.24667 6.56,6.9c2.66667,1.66 5.84,2.49 9.52,2.49v0c6.71333,0 11.91,-2.62333 15.59,-7.87c3.68,-5.24667 5.52,-13.75667 5.52,-25.53v0c0,-4.69333 -0.39,-9.06333 -1.17,-13.11c-0.78,-4.04667 -2,-7.59 -3.66,-10.63c-1.65333,-3.03333 -3.81333,-5.4 -6.48,-7.1c-2.66667,-1.70667 -5.93333,-2.56 -9.8,-2.56v0c-6.71333,0 -11.91,2.69333 -15.59,8.08c-3.68,5.38 -5.52,13.82 -5.52,25.32zM210.99,74.52v73.42c0,3.22 0.41333,5.56333 1.24,7.03c0.82667,1.47333 2.16,2.21 4,2.21v0c1.10667,0 2.19,-0.09 3.25,-0.27c1.05333,-0.18667 2.36333,-0.60333 3.93,-1.25v0l1.93,14.08c-1.47333,0.73333 -3.72667,1.47 -6.76,2.21c-3.04,0.73333 -6.17,1.1 -9.39,1.1v0c-5.24,0 -9.24,-1.21667 -12,-3.65c-2.76,-2.44 -4.14,-6.46667 -4.14,-12.08v0v-82.8zM245.49,102.12l12.69,38.78l2.49,10.76h0.83l1.79,-10.9l10.49,-38.64h18.49l-20.98,62.24c-1.74667,5.15333 -3.42333,9.86667 -5.03,14.14c-1.61333,4.28 -3.38667,7.98333 -5.32,11.11c-1.92667,3.12667 -4.06333,5.54333 -6.41,7.25c-2.34667,1.7 -5.13,2.55 -8.35,2.55v0c-4.78667,0 -8.60667,-0.78333 -11.46,-2.35v0l3.32,-14.35c1.38,0.55333 2.76,0.83 4.14,0.83v0c2.11333,0 4.16,-0.89667 6.14,-2.69c1.97333,-1.79333 3.46667,-5.03667 4.48,-9.73v0l-28.84,-69zM356.16,171.12h-17.94v-37.54c0,-6.34667 -0.59667,-10.85333 -1.79,-13.52c-1.19333,-2.66667 -3.67667,-4 -7.45,-4v0c-3.12667,0 -5.65667,0.85 -7.59,2.55c-1.93333,1.7 -3.40667,3.88667 -4.42,6.56v0v45.95h-17.94v-69h13.94l2.07,9.11h0.55c2.12,-2.94667 4.81333,-5.52333 8.08,-7.73c3.26,-2.20667 7.46667,-3.31 12.62,-3.31v0c4.42,0 8.03333,0.89667 10.84,2.69c2.8,1.79333 4.98333,4.80667 6.55,9.04v0c2.11333,-3.58667 4.82667,-6.44 8.14,-8.56c3.31333,-2.11333 7.31667,-3.17 12.01,-3.17v0c3.86,0 7.15,0.46 9.87,1.38c2.71333,0.92 4.92,2.50667 6.62,4.76c1.7,2.25333 2.96333,5.26667 3.79,9.04c0.83333,3.77333 1.25,8.55667 1.25,14.35v0v41.4h-17.94v-38.78c0,-5.42667 -0.57667,-9.49667 -1.73,-12.21c-1.14667,-2.71333 -3.7,-4.07 -7.66,-4.07v0c-3.22,0 -5.77333,0.87333 -7.66,2.62c-1.88667,1.74667 -3.29,4.14 -4.21,7.18v0zM410.12,198.72v-96.6h13.11l2.07,8.28h0.55c2.39333,-3.49333 5.22333,-6.07 8.49,-7.73c3.26667,-1.65333 7.24667,-2.48 11.94,-2.48v0c8.64667,0 15.13333,2.73667 19.46,8.21c4.32,5.47333 6.48,14.28333 6.48,26.43v0c0,5.88667 -0.69,11.19667 -2.07,15.93c-1.38,4.74 -3.42667,8.76667 -6.14,12.08c-2.71333,3.31333 -6.02333,5.84333 -9.93,7.59c-3.91333,1.74667 -8.4,2.62 -13.46,2.62v0c-2.85333,0 -5.2,-0.20667 -7.04,-0.62c-1.84,-0.41333 -3.68,-1.08 -5.52,-2v0v28.29zM440.9,115.37v0c-3.5,0 -6.24,0.87333 -8.22,2.62c-1.97333,1.74667 -3.51333,4.37 -4.62,7.87v0v28.7c1.28667,1.01333 2.69,1.82 4.21,2.42c1.52,0.59333 3.52,0.89 6,0.89v0c5.15333,0 9.02,-1.81667 11.6,-5.45c2.57333,-3.63333 3.86,-9.63667 3.86,-18.01v0c0,-6.07333 -1.01333,-10.76333 -3.04,-14.07c-2.02,-3.31333 -5.28333,-4.97 -9.79,-4.97zM483.95,102.12h17.94v39.19c0,5.61333 0.66667,9.66333 2,12.15c1.33333,2.48 3.93333,3.72 7.8,3.72v0c3.40667,0 6.23667,-1.01 8.49,-3.03c2.25333,-2.02667 3.93,-4.51333 5.03,-7.46v0v-44.57h17.94v48.02c0,3.77333 0.18667,7.47667 0.56,11.11c0.36667,3.63333 0.91667,6.92333 1.65,9.87v0h-13.52l-3.18,-10.21h-0.55c-2.11333,3.49333 -5.05667,6.39 -8.83,8.69c-3.77333,2.3 -8.23667,3.45 -13.39,3.45v0c-3.49333,0 -6.62,-0.46 -9.38,-1.38c-2.76,-0.92 -5.06,-2.43667 -6.9,-4.55c-1.84,-2.12 -3.24333,-4.97333 -4.21,-8.56c-0.96667,-3.58667 -1.45,-8.09333 -1.45,-13.52v0zM587.45,152.08v0c0,-1.84 -0.78,-3.31333 -2.34,-4.42c-1.56667,-1.10667 -3.5,-2.12 -5.8,-3.04c-2.3,-0.92 -4.83,-1.86333 -7.59,-2.83c-2.76,-0.96 -5.29,-2.29333 -7.59,-4c-2.3,-1.7 -4.23333,-3.86 -5.8,-6.48c-1.56,-2.62667 -2.34,-6.01 -2.34,-10.15v0c0,-6.80667 2.02333,-12.00333 6.07,-15.59c4.04667,-3.58667 9.89,-5.38 17.53,-5.38v0c5.24,0 9.97667,0.55 14.21,1.65c4.23333,1.10667 7.54667,2.35 9.94,3.73v0l-4.01,12.97c-2.11333,-0.82667 -4.78,-1.7 -8,-2.62c-3.22,-0.92 -6.48667,-1.38 -9.8,-1.38v0c-5.33333,0 -8,2.07 -8,6.21v0c0,1.65333 0.78,2.98667 2.34,4c1.56667,1.01333 3.5,1.95667 5.8,2.83c2.3,0.87333 4.83,1.81667 7.59,2.83c2.76,1.01333 5.29,2.32333 7.59,3.93c2.3,1.61333 4.23333,3.70667 5.8,6.28c1.56,2.58 2.34,5.89333 2.34,9.94v0c0,6.99333 -2.23,12.49 -6.69,16.49c-4.46,4 -11.15333,6 -20.08,6v0c-4.87333,0 -9.45,-0.62 -13.73,-1.86c-4.28,-1.24 -7.75333,-2.69 -10.42,-4.35v0l4.97,-13.38c2.11333,1.19333 4.92,2.36667 8.42,3.52c3.49333,1.14667 7.08,1.72 10.76,1.72v0c2.66667,0 4.80667,-0.50667 6.42,-1.52c1.60667,-1.01333 2.41,-2.71333 2.41,-5.1z"></path></g></g></g></svg>